HIERARCHY
ROOT Hips
{
  OFFSET 196.326 95.9168 97.7182
  CHANNELS 6 Xposition Yposition Zposition Zrotation Xrotation Yrotation
  JOINT LeftUpLeg
  {
    OFFSET 8.64259 1.95398 -2.38835
    CHANNELS 3 Zrotation Xrotation Yrotation
    JOINT LeftLeg
    {
      OFFSET 43.7702 0 0
      CHANNELS 3 Zrotation Xrotation Yrotation
      JOINT LeftFoot
      {
        OFFSET 40.6238 0 0
        CHANNELS 3 Zrotation Xrotation Yrotation
        JOINT LeftToeBase
        {
          OFFSET 12.7242 0 0
          CHANNELS 3 Zrotation Xrotation Yrotation
          End Site
          {
            OFFSET 0 0 0
          }
        }
      }
    }
  }
  JOINT RightUpLeg
  {
    OFFSET -8.2249 1.95398 -2.59336
    CHANNELS 3 Zrotation Xrotation Yrotation
    JOINT RightLeg
    {
      OFFSET 43.5653 0 0
      CHANNELS 3 Zrotation Xrotation Yrotation
      JOINT RightFoot
      {
        OFFSET 40.6238 0 0
        CHANNELS 3 Zrotation Xrotation Yrotation
        JOINT RightToeBase
        {
          OFFSET 12.7242 0 0
          CHANNELS 3 Zrotation Xrotation Yrotation
          End Site
          {
            OFFSET 0 0 0
          }
        }
      }
    }
  }
  JOINT Spine
  {
    OFFSET 0.165834 0.87714 6.61349
    CHANNELS 3 Zrotation Xrotation Yrotation
    JOINT Spine1
    {
      OFFSET 7.38963 1.71661e-005 0
      CHANNELS 3 Zrotation Xrotation Yrotation
      JOINT Spine2
      {
        OFFSET 11.9445 1.14441e-005 0
        CHANNELS 3 Zrotation Xrotation Yrotation
        JOINT Spine3
        {
          OFFSET 14.7254 4.19617e-005 0
          CHANNELS 3 Zrotation Xrotation Yrotation
          JOINT Spine4
          {
            OFFSET 10.9679 0 0
            CHANNELS 3 Zrotation Xrotation Yrotation
            JOINT RightShoulder
            {
              OFFSET 2.46616 -1.6653 3.69651
              CHANNELS 3 Zrotation Xrotation Yrotation
              JOINT RightArm
              {
                OFFSET 13.0012 0 0
                CHANNELS 3 Zrotation Xrotation Yrotation
                JOINT RightForeArm
                {
                  OFFSET 28.7848 1.52588e-005 0
                  CHANNELS 3 Zrotation Xrotation Yrotation
                  JOINT RightHand
                  {
                    OFFSET 26.5688 1.52588e-005 0
                    CHANNELS 3 Zrotation Xrotation Yrotation
                    End Site
                    {
                      OFFSET 0 0 0
                    }
                  }
                }
              }
            }
            JOINT LeftShoulder
            {
              OFFSET 2.38034 -1.29275 -3.75231
              CHANNELS 3 Zrotation Xrotation Yrotation
              JOINT LeftArm
              {
                OFFSET 16.3182 6.10351e-005 0
                CHANNELS 3 Zrotation Xrotation Yrotation
                JOINT LeftForeArm
                {
                  OFFSET 27.0901 0 0
                  CHANNELS 3 Zrotation Xrotation Yrotation
                  JOINT LeftHand
                  {
                    OFFSET 24.5451 1.52588e-005 0
                    CHANNELS 3 Zrotation Xrotation Yrotation
                    End Site
                    {
                      OFFSET 0 0 0
                    }
                  }
                }
              }
            }
            JOINT Neck
            {
              OFFSET 5.0226 -0.0266342 0
              CHANNELS 3 Zrotation Xrotation Yrotation
              JOINT Head
              {
                OFFSET 6.69363 2.86102e-005 0
                CHANNELS 3 Zrotation Xrotation Yrotation
                End Site
                {
                  OFFSET 0 0 0
                }
              }
            }
          }
        }
      }
    }
  }
}
MOTION
Frames:	12
Frame Time:	0.0416667
-7.16251 97.3171 -77.2037 -60.0851 -83.2737 -58.9168 -172.187 5.76792 92.8736 -7.80198 8.62431 0.662872 60.7701 6.32208 11.955 39.2182 9.75748 -25.109 177.933 8.03435 88.7532 -12.8221 3.49281 -1.03998 65.0044 -2.07855 -1.10518 31.3232 -0.618056 18.8405 0.0333747 6.52848 -89.9262 13.8168 0.102618 0.134325 2.14589 0.107967 0.129694 -20.3892 0.057051 0.158813 -0.376575 0.0570598 0.158815 80.4427 -50.1077 -115.196 29.0351 -10.8978 5.68907 -8.87735 -18.5075 -37.9457 -2.27398 -0.346627 3.52597 -103.049 -43.6971 56.8858 -29.2066 12.0615 1.36469 2.2473 12.1497 -27.6378 14.4284 1.05945 3.4055 10.2121 2.8002 2.24239 0.196555 2.26851 0.64498 
-7.15878 97.3263 -77.1911 -60.3128 -83.1538 -58.9462 -171.85 6.01843 93.2134 -8.1386 9.34211 0.357908 60.7874 6.31421 12.2473 40.2034 10.4559 -25.1121 177.944 7.95755 88.9184 -12.6155 3.3741 -0.954916 64.8955 -2.09945 -1.11879 31.1745 -0.639696 18.5541 0.0404268 6.52842 -89.9584 13.817 0.0999292 0.0700878 2.14606 0.103456 0.0655933 -20.3891 0.0747531 0.0970422 -0.376455 0.0747648 0.0970501 80.3012 -50.1548 -115.386 28.8162 -11.0547 5.6624 -8.32313 -18.0552 -37.4538 -2.55469 -0.354178 3.06478 -103.076 -43.7783 56.8825 -29.2573 11.8664 1.55547 2.53633 12.2528 -28.0576 14.1048 1.07616 3.67423 10.3581 2.97057 1.34036 0.295252 2.72641 2.07392 
-7.11192 97.3361 -77.1421 -61.8687 -83.2431 -60.1929 -171.55 6.17035 93.5818 -8.73769 9.40626 0.197199 61.0335 6.25438 12.3097 40.659 10.9081 -23.4897 177.927 7.48096 89.1366 -12.1439 3.01156 -0.849426 64.9464 -2.2249 -1.19742 30.9098 -0.672278 17.9472 0.0505523 6.56829 -89.9827 13.7373 0.108694 0.0202429 2.06639 0.109472 0.0154236 -20.4688 0.0975793 0.0519655 -0.456146 0.0975806 0.0519689 80.4308 -50.1067 -115.213 28.9762 -11.0758 5.44498 -8.26511 -17.9274 -37.9498 -3.0707 -0.396516 4.22381 -103.055 -43.6752 56.8663 -29.1048 12.1376 1.51946 2.32945 12.0462 -28.0726 14.3004 1.04868 3.39114 10.2214 2.95979 1.84246 0.301629 2.55186 1.21967 
-7.12792 97.3294 -77.1282 -63.8411 -83.1768 -61.9742 -171.28 5.96614 93.8424 -8.68169 9.91267 0.0116422 61.0303 6.57736 13.2124 40.6944 10.9554 -23.2227 177.938 7.44604 89.3053 -12.4519 2.7907 -0.79962 65.0302 -2.29222 -1.23684 30.7067 -0.697685 17.5398 0.070493 6.59756 -89.9947 13.6788 0.142427 -0.00794542 2.00782 0.141941 -0.0142124 -20.5274 0.138231 0.0352302 -0.51476 0.138227 0.0352182 80.4775 -50.2809 -115.076 28.8113 -11.3302 5.32142 -7.82783 -17.2995 -38.3465 -3.19897 -0.403001 4.69818 -102.869 -43.5222 57.0777 -29.1308 12.3032 1.52441 2.15596 11.2968 -28.5106 13.9363 1.12969 4.13612 10.338 3.01395 1.73086 -0.00444461 2.61829 1.11896 
-7.24741 97.318 -77.0924 -62.2759 -82.9717 -60.4186 -171.203 6.11885 93.9562 -8.50251 10.1039 -0.0680797 60.6978 6.53421 13.7392 42.2136 11.8255 -25.6289 178.037 7.9677 89.4142 -13.0034 2.80607 -0.824287 65.3282 -2.40021 -1.2966 30.4479 -0.748778 17.4337 0.0806264 6.57466 -89.9759 13.7246 0.171618 0.0256205 2.05364 0.172587 0.0180398 -20.4816 0.155985 0.0760142 -0.468947 0.155984 0.0760203 80.3766 -50.4458 -115.161 28.9519 -11.3127 5.47599 -8.47867 -17.6079 -38.6806 -3.25418 -0.412407 4.80957 -102.703 -43.3028 57.2292 -29.2859 12.3126 1.54465 2.23019 10.9922 -28.9271 13.624 1.27087 5.29649 10.4089 2.98597 1.24989 -0.0886021 2.73395 1.71659 
-7.44228 97.3222 -77.1664 -63.154 -83.108 -61.3893 -171.198 5.92679 94.0548 -8.37627 10.0399 0.0135424 60.7835 6.79715 13.9745 42.8831 12.0107 -28.2989 178.066 8.36849 89.4626 -14.0595 2.82613 -0.872545 65.3736 -2.41419 -1.30302 31.2015 -0.561396 16.9065 0.0592382 6.59367 -89.952 13.6865 0.140833 0.0777576 2.01554 0.144122 0.071476 -20.5196 0.110954 0.116491 -0.506982 0.110949 0.116481 80.233 -50.5218 -115.342 29.1312 -11.1021 5.63362 -8.81688 -17.8478 -38.5867 -3.22919 -0.409523 4.55293 -102.495 -43.1982 57.4989 -29.3531 12.2602 1.67472 2.67418 11.6551 -29.2706 13.0898 1.30822 5.91305 10.3278 3.0412 1.31051 -0.0120009 2.7739 1.67535 
-7.75711 97.2846 -77.3476 -67.4157 -83.3016 -65.7125 -170.927 5.28727 94.3425 -8.00501 10.4808 -0.102739 60.8426 7.168 14.1649 42.7861 11.8644 -29.0888 178.213 8.6933 89.6847 -15.6289 2.94016 -1.03317 66.0547 -2.6197 -1.41108 30.6925 -0.630665 16.064 0.0585193 6.65361 -89.9181 13.5666 0.155844 0.143867 1.89561 0.16203 0.136869 -20.6395 0.105401 0.184054 -0.626875 0.105404 0.184058 80.183 -50.5989 -115.386 29.4369 -10.9569 5.78719 -8.43409 -17.2938 -38.5823 -3.4199 -0.415871 4.44777 -102.401 -43.0834 57.5888 -29.2543 12.3059 2.04299 3.24459 12.3337 -30.0233 12.3595 1.32843 6.57034 10.1489 2.9968 0.962158 0.256564 2.8242 1.80179 
-8.13629 97.2469 -77.4498 -69.0533 -83.4993 -67.2818 -170.828 5.17119 94.6984 -8.04593 10.8718 -0.0434911 60.7157 7.36178 14.6596 44.2234 12.6232 -30.6647 178.405 9.2178 90.0629 -17.1227 3.36094 -1.10671 66.4632 -2.77376 -1.49141 30.6624 -0.603616 15.3832 0.0412314 6.68534 -89.8847 13.503 0.137752 0.213173 1.83205 0.146989 0.20691 -20.703 0.0673116 0.244722 -0.690344 0.067305 0.244724 80.2942 -50.7697 -115.155 29.7623 -11.0442 5.98005 -7.98746 -15.7507 -39.7744 -3.58925 -0.426967 5.0718 -102.159 -42.7665 57.8153 -29.2484 12.3165 2.19465 3.16296 11.9805 -30.1359 12.3177 1.16828 5.36875 10.153 3.02494 0.43562 0.262996 2.99389 2.17154 
-8.48601 97.1929 -77.5309 -71.7825 -83.4619 -69.6569 -171.104 5.08766 95.0613 -8.37854 10.9742 0.518797 60.3393 7.33212 15.3033 46.0815 13.9621 -29.5462 178.604 9.75405 90.6637 -18.6421 3.56407 -1.06074 66.4947 -2.85548 -1.53835 31.2956 -0.448305 14.6679 0.0484804 6.72439 -89.8801 13.4249 0.154277 0.220459 1.75395 0.163832 0.213443 -20.7811 0.080885 0.256641 -0.768435 0.0808916 0.256628 80.6342 -50.6324 -114.71 30.5023 -10.9982 6.16204 -7.10393 -15.1262 -39.3056 -5.6972 -0.571827 4.96556 -101.678 -42.2747 58.3308 -29.4032 12.6184 2.31549 3.83759 12.3734 -31.6893 11.261 1.14249 5.91755 10.3175 3.06103 0.00649235 0.147457 3.13875 2.41876 
-9.09164 97.1408 -77.603 -72.5843 -83.9182 -69.9122 -171.203 5.82096 95.8442 -9.98887 10.3443 1.04936 60.9387 7.07587 13.7555 46.6536 14.7746 -26.6232 178.829 10.2661 91.4974 -20.1979 3.80841 -0.909939 66.3965 -2.91885 -1.57964 33.2183 -0.0492625 13.4328 0.0436672 6.77142 -89.8723 13.3308 0.148387 0.236904 1.65988 0.158671 0.230138 -20.8751 0.070328 0.270551 -0.86249 0.0703234 0.270547 81.296 -50.6428 -113.729 31.1752 -11.0633 6.15818 -5.67858 -13.327 -39.4588 -8.44454 -0.751637 4.71864 -101.904 -41.5769 57.6596 -29.0232 12.1245 2.74343 5.38354 12.8908 -34.181 9.24189 1.12797 7.55911 10.6021 2.74151 -0.892413 -0.136445 3.03845 2.62017 
-9.78744 97.0188 -77.7932 -72.2065 -84.508 -68.9845 -171.179 7.0926 96.7664 -12.1599 10.5636 1.31813 61.2569 6.71116 12.748 47.6423 15.738 -24.9324 178.829 10.7519 92.3314 -21.5416 4.60379 -0.495027 67.1569 -3.29005 -1.77645 35.5273 0.366802 13.8508 0.0371976 6.84616 -89.8608 13.1813 0.140946 0.261124 1.51035 0.152305 0.254667 -21.0246 0.0559446 0.291414 -1.01197 0.0559565 0.291414 81.3421 -50.3736 -113.762 32.0574 -10.2061 7.04488 -4.41564 -10.4309 -41.0035 -9.78731 -0.854776 4.91211 -101.728 -41.0941 57.71 -27.8884 10.9313 2.147 6.87075 12.4421 -36.5686 6.29382 0.746636 6.53833 11.4217 2.46214 -1.21995 -0.383315 2.80739 2.00478 
-10.6125 96.8172 -78.1655 -66.4839 -85.7885 -62.5094 -171.155 9.0915 98.0669 -14.7268 12.3158 1.43625 61.2743 6.64525 12.7286 49.2938 17.0676 -24.0732 178.662 11.5251 93.353 -23.3867 5.74621 0.14373 68.2084 -3.71498 -1.9838 37.5692 0.765007 15.2473 -0.0291869 6.92335 -89.8336 13.027 0.0220955 0.330149 1.35601 0.0366006 0.328846 -21.1788 -0.0781509 0.321526 -1.16617 -0.0781522 0.321518 81.391 -50.0558 -113.809 32.8222 -8.86268 7.87968 -2.1096 -6.62417 -41.7065 -9.02919 -0.686505 3.54988 -100.597 -40.3942 59.1672 -26.1727 10.6306 0.107825 8.18874 12.0311 -39.6275 4.95689 0.58244 6.11885 11.8506 2.19209 -1.54993 0.0753702 2.57534 1.02366 
